<?xml version="1.0" standalone="no"?><!DOCTYPE svg PUBLIC "-//W3C//DTD SVG 1.1//EN" "http://www.w3.org/Graphics/SVG/1.1/DTD/svg11.dtd"><svg t="1779327196698" class="icon" viewBox="0 0 1024 1024" version="1.1" xmlns="http://www.w3.org/2000/svg" p-id="84507" xmlns:xlink="http://www.w3.org/1999/xlink" width="32" height="32"><path d="M809.410322 1022.812161H150.733089A109.813672 109.813672 0 0 1 40.960377 912.978009V180.777635a109.772712 109.772712 0 0 1 109.772712-109.813673h512.28631c46.899162 0 46.899162 73.195461 0 73.195462H150.733089c-19.455984 0-36.618211 17.162226-36.618211 36.618211v732.200374c0 19.455984 17.162226 36.618211 36.618211 36.618211h658.656753c19.455984 0 36.618211-17.162226 36.618211-36.618211V327.209517c0-46.919642 73.154501-46.919642 73.154501 0v585.748012a109.772712 109.772712 0 0 1-109.752232 109.854632zM568.115155 426.742238c-13.701109-16.035827-13.701109-36.618211 0-52.613078L931.757744 10.302251a38.707169 38.707169 0 0 1 52.613078 0c12.57471 13.742069 14.868468 28.610537 5.713916 44.625884l-5.713916 8.007674-363.642589 363.806429a38.707169 38.707169 0 0 1-52.613078 0z m-124.64118 10.321912H223.90807c-46.899162 0-46.899162-73.236421 0-73.236422h219.565905c46.899162 0 46.899162 73.236421 0 73.236422z m219.565904 219.627344H223.90807c-46.899162 0-46.899162-73.195461 0-73.195462h439.131809c46.878682 0 46.878682 73.195461 0 73.195462z" fill="#666666" p-id="84508"></path></svg>