<?xml version="1.0" standalone="no"?><!DOCTYPE svg PUBLIC "-//W3C//DTD SVG 1.1//EN" "http://www.w3.org/Graphics/SVG/1.1/DTD/svg11.dtd"><svg t="1779327797563" class="icon" viewBox="0 0 1024 1024" version="1.1" xmlns="http://www.w3.org/2000/svg" p-id="98629" xmlns:xlink="http://www.w3.org/1999/xlink" width="32" height="32"><path d="M517.248 42.666667c259.2 0 469.333333 210.133333 469.333333 469.333333s-210.133333 469.333333-469.333333 469.333333a21.333333 21.333333 0 0 1 0-42.666666c133.76 0 253.162667-61.568 331.392-157.909334a82.752 82.752 0 0 1-16.917333-3.029333l-20.501334-5.888a85.333333 85.333333 0 0 1-58.517333-105.536l47.04-164.053333a85.290667 85.290667 0 0 1 105.386667-58.56l21.290666 5.930666c4.8 1.365333 9.365333 3.114667 13.696 5.226667C912.192 246.229333 733.504 85.333333 517.248 85.333333 300.778667 85.333333 121.962667 246.528 94.293333 455.424c4.736-2.432 9.813333-4.437333 15.232-5.973333l22.656-5.717334a85.333333 85.333333 0 0 1 105.536 58.517334l47.04 164.053333c13.013333 45.290667-13.205333 92.544-59.242666 105.749333l-23.573334 5.824c-37.205333 10.666667-71.402667-2.133333-94.570666-37.653333l-2.986667-4.8a140.544 140.544 0 0 1-4.138667-7.509333l-1.941333-3.968A468.48 468.48 0 0 1 47.914667 512c0-259.2 210.133333-469.333333 469.333333-469.333333zM840.746667 514.005333l-47.04 164.053334a42.666667 42.666667 0 0 0 29.226666 52.778666l20.522667 5.888a42.666667 42.666667 0 0 0 45.056-14.336c2.453333-4.352 4.842667-8.746667 7.146667-13.162666l0.576-1.770667 0.298666 0.106667a424.170667 424.170667 0 0 0 46.592-169.770667c0.917333-26.197333-7.253333-41.066667-28.309333-47.104l-21.290667-5.930667a42.666667 42.666667 0 0 0-52.778666 29.248z m-694.314667-29.866666l-25.813333 6.485333c-18.794667 5.397333-29.802667 22.293333-29.184 48.661333 3.733333 59.413333 19.626667 115.498667 45.226666 165.845334l-1.194666-2.090667c14.933333 26.56 32.576 38.336 52.16 34.432l26.837333-6.634667a42.666667 42.666667 0 0 0 29.269333-52.778666l-47.04-164.053334a42.752 42.752 0 0 0-50.261333-29.866666z" p-id="98630" fill="#666666"></path></svg>